<?xml version="1.0" standalone="no"?>
<!DOCTYPE svg PUBLIC "-//W3C//DTD SVG 20010904//EN"
 "http://www.w3.org/TR/2001/REC-SVG-20010904/DTD/svg10.dtd">
<svg version="1.0" xmlns="http://www.w3.org/2000/svg"
 width="416.000000pt" height="185.000000pt" viewBox="0 0 416.000000 185.000000"
 preserveAspectRatio="xMidYMid meet">

<g transform="translate(0.000000,185.000000) scale(0.100000,-0.100000)"
fill="#000000" stroke="none">
<path d="M2045 1094 c-9 -15 -12 -24 -7 -20 6 4 15 -2 21 -11 8 -15 9 -12 7
12 -2 17 2 33 8 37 8 6 8 8 0 8 -7 0 -19 -12 -29 -26z"/>
<path d="M990 681 c0 -6 17 -11 38 -13 l37 -3 3 -97 c4 -130 22 -128 22 2 l0
100 41 0 c24 0 38 4 34 10 -8 13 -175 13 -175 1z"/>
<path d="M1240 585 l0 -105 75 0 c91 0 101 18 13 22 -63 3 -63 3 -66 36 l-3
32 61 0 c45 0 60 3 57 13 -3 8 -21 11 -54 9 -49 -2 -51 -2 -57 29 -3 17 -3 35
0 40 3 5 32 9 65 9 33 0 59 4 59 10 0 6 -32 10 -75 10 l-75 0 0 -105z"/>
<path d="M1504 656 c-27 -27 -34 -42 -34 -74 0 -78 80 -133 146 -100 32 15 49
46 18 33 -66 -27 -110 -17 -130 30 -12 30 -12 39 0 69 22 53 87 76 116 41 10
-12 16 -13 24 -5 17 17 -21 40 -67 40 -31 0 -46 -7 -73 -34z"/>
<path d="M1747 683 c-4 -3 -7 -51 -7 -105 0 -80 3 -98 15 -98 11 0 15 12 15
45 l0 45 61 0 62 0 -6 -45 c-5 -36 -4 -45 8 -45 12 0 15 19 15 106 0 80 -3
105 -12 101 -8 -2 -13 -22 -13 -48 l0 -44 -57 -3 -58 -3 0 51 c0 46 -7 60 -23
43z"/>
<path d="M2071 668 c-5 -13 -25 -58 -45 -102 -41 -90 -40 -86 -22 -86 8 0 18
9 21 20 5 17 15 20 67 20 51 0 61 -3 65 -20 4 -16 33 -30 33 -16 0 15 -90 201
-99 204 -6 2 -15 -7 -20 -20z m42 -71 c9 -23 17 -46 17 -50 0 -4 -18 -7 -40
-7 -22 0 -40 3 -40 7 0 13 35 93 40 93 3 0 13 -19 23 -43z"/>
<path d="M2277 672 c-10 -10 -17 -28 -17 -40 0 -22 24 -52 43 -52 7 0 29 -5
50 -11 33 -9 38 -14 35 -37 -3 -25 -6 -27 -48 -26 -25 0 -53 4 -62 8 -13 6
-18 4 -18 -7 0 -21 62 -40 100 -32 38 8 60 30 60 59 0 30 -27 53 -73 61 -50
10 -70 30 -57 56 12 21 68 27 87 8 6 -6 17 -8 24 -4 21 13 -20 35 -66 35 -28
0 -47 -6 -58 -18z"/>
<path d="M2507 672 c-37 -41 -14 -85 50 -97 46 -8 63 -21 63 -46 0 -31 -57
-37 -114 -14 -28 12 -15 -17 15 -33 49 -26 129 6 129 53 0 22 -28 55 -46 55
-5 0 -26 5 -46 11 -30 8 -38 15 -38 33 0 35 50 49 90 24 26 -16 40 0 16 18
-29 20 -99 18 -119 -4z"/>
<path d="M2730 585 l0 -105 81 0 c51 0 78 4 74 10 -3 6 -33 10 -65 10 -64 0
-74 6 -64 45 6 23 11 25 61 25 74 0 67 23 -8 24 -53 1 -54 1 -57 34 -4 35 -5
35 76 32 41 -1 52 2 52 14 0 13 -13 16 -75 16 l-75 0 0 -105z"/>
<path d="M2982 674 c-26 -18 -29 -56 -6 -75 9 -8 35 -19 57 -24 22 -6 45 -18
50 -27 24 -37 -44 -64 -95 -37 -27 14 -36 3 -15 -19 27 -26 101 -23 129 5 18
19 20 27 12 50 -7 22 -21 32 -67 47 -47 15 -57 22 -57 41 0 33 61 50 87 24 6
-6 17 -8 24 -4 20 13 -19 35 -61 35 -19 0 -46 -7 -58 -16z"/>
</g>
</svg>
