<?xml version="1.0" standalone="no"?>
<!DOCTYPE svg PUBLIC "-//W3C//DTD SVG 20010904//EN"
 "http://www.w3.org/TR/2001/REC-SVG-20010904/DTD/svg10.dtd">
<svg version="1.0" xmlns="http://www.w3.org/2000/svg"
 width="1071.989018pt" height="278.382729pt" viewBox="0 0 1071.989018 278.382729"
 preserveAspectRatio="xMidYMid meet">
<metadata>
Created by potrace 1.12, written by Peter Selinger 2001-2015
</metadata>
<g transform="translate(-15.000000,298.382729) scale(0.100000,-0.100000)"
fill="#000000" stroke="none">
<path d="M208 2982 l-58 -3 0 -1377 1 -1377 23 55 c31 73 558 1333 688 1645
28 66 74 176 103 245 29 69 85 204 125 300 40 96 104 249 142 339 37 90 66
166 64 168 -5 5 -1004 9 -1088 5z"/>
<path d="M2254 2982 l-112 -3 28 -67 c15 -37 85 -204 155 -372 366 -877 495
-1185 624 -1495 78 -187 157 -376 176 -420 19 -44 62 -147 96 -230 34 -82 66
-154 70 -159 5 -6 9 601 9 1367 0 757 -3 1377 -7 1377 -57 3 -958 4 -1039 2z"/>
<path d="M6683 2453 l-53 -4 -2 -239 -3 -240 -115 -4 c-207 -8 -352 -67 -481
-196 -129 -128 -188 -287 -176 -475 11 -176 57 -286 161 -391 147 -147 367
-202 641 -159 110 17 289 68 300 85 3 5 5 370 5 811 0 627 -3 805 -13 811 -12
8 -160 8 -264 1z m-79 -763 l26 -10 0 -324 c0 -382 11 -351 -129 -344 -141 7
-234 63 -283 172 -20 44 -23 67 -23 166 0 131 16 178 84 248 75 77 241 124
325 92z"/>
<path d="M8545 2451 c-3 -2 -5 -374 -5 -826 0 -646 3 -825 13 -833 40 -33 280
-67 420 -59 126 7 208 27 313 78 174 83 277 202 335 389 33 107 34 274 1 380
-72 229 -254 368 -507 387 -74 5 -186 -6 -227 -22 -16 -7 -18 11 -20 250 l-3
256 -158 2 c-87 2 -160 1 -162 -2z m611 -789 c61 -31 110 -86 134 -150 18 -48
21 -73 18 -162 -3 -90 -7 -113 -31 -162 -64 -130 -213 -206 -361 -184 l-46 7
2 332 3 332 30 7 c60 14 207 2 251 -20z"/>
<path d="M4958 2322 l-107 -3 -6 -47 c-8 -57 -35 -143 -116 -372 -34 -96 -69
-200 -79 -230 -10 -30 -37 -107 -59 -170 -22 -63 -78 -225 -125 -360 -46 -135
-94 -272 -105 -305 -12 -33 -19 -65 -16 -73 6 -17 276 -16 298 1 9 7 41 92 73
190 l58 177 281 0 280 0 64 -185 c36 -103 71 -187 79 -190 19 -7 307 -4 319 4
5 3 -29 114 -80 256 -49 138 -115 324 -147 415 -32 91 -81 230 -109 310 -29
80 -79 222 -112 315 -89 250 -92 260 -96 265 -4 5 -143 6 -295 2z m150 -442
c28 -91 70 -228 95 -305 24 -77 42 -143 40 -147 -6 -11 -371 -10 -377 0 -3 5
12 62 33 128 44 134 90 283 121 394 27 96 30 104 34 99 2 -2 27 -78 54 -169z"/>
<path d="M7660 1964 c-235 -43 -391 -176 -472 -404 -29 -81 -36 -273 -14 -374
63 -279 281 -455 568 -456 219 0 402 99 505 275 69 118 102 287 83 437 -38
314 -244 511 -545 523 -55 2 -111 2 -125 -1z m148 -276 c33 -8 61 -26 98 -62
44 -43 56 -62 74 -124 19 -61 21 -89 17 -175 -6 -119 -16 -158 -60 -224 -45
-68 -103 -98 -187 -98 -79 1 -132 25 -184 87 -47 55 -67 121 -73 240 -7 130
17 214 82 286 66 74 136 95 233 70z"/>
<path d="M10275 1964 c-158 -38 -223 -71 -310 -159 -65 -65 -116 -151 -147
-249 -25 -79 -35 -268 -19 -362 52 -296 274 -465 609 -464 112 1 223 19 305
50 l57 21 0 131 c0 120 -1 130 -17 123 -136 -54 -373 -61 -473 -14 -85 40
-137 102 -155 187 l-7 32 230 0 c126 0 290 3 365 7 l137 6 10 36 c16 60 12
201 -9 283 -61 236 -218 364 -461 373 -52 2 -104 2 -115 -1z m170 -273 c68
-30 122 -114 113 -173 l-3 -23 -217 -3 c-160 -2 -218 1 -218 9 0 64 68 160
134 190 53 24 139 24 191 0z"/>
<path d="M1717 1933 c-5 -8 -46 -106 -287 -673 -62 -146 -134 -316 -161 -378
-27 -62 -49 -115 -49 -117 0 -3 121 -5 269 -5 l269 0 112 -280 112 -280 234 0
c154 0 234 4 234 10 0 9 -230 564 -275 665 -8 17 -57 134 -110 260 -54 127
-133 316 -177 420 -44 105 -98 232 -119 284 -42 102 -45 106 -52 94z"/>
</g>
</svg>
