<?xml version="1.0" standalone="no"?>
<!DOCTYPE svg PUBLIC "-//W3C//DTD SVG 20010904//EN"
 "http://www.w3.org/TR/2001/REC-SVG-20010904/DTD/svg10.dtd">
<svg version="1.0" xmlns="http://www.w3.org/2000/svg"
 width="1171.835825pt" height="239.172681pt" viewBox="0 0 1171.835825 239.172681"
 preserveAspectRatio="xMidYMid meet">
<metadata>
Created by potrace 1.12, written by Peter Selinger 2001-2015
</metadata>
<g transform="translate(-22.000000,273.022789) scale(0.100000,-0.100000)"
fill="#000000" stroke="none">
<path d="M1195 2715 c-232 -43 -451 -159 -620 -329 -239 -241 -355 -518 -355
-851 0 -333 116 -610 355 -851 172 -174 390 -288 629 -330 120 -21 1724 -21
1841 1 373 67 694 303 859 631 176 352 176 746 0 1098 -165 328 -486 564 -859
631 -110 20 -1741 20 -1850 0z m1752 -409 c264 -57 463 -216 572 -459 47 -104
56 -159 56 -322 -1 -143 -3 -154 -33 -239 -99 -278 -307 -461 -595 -522 -56
-11 -203 -14 -823 -14 -734 0 -758 1 -842 21 -225 55 -425 212 -526 414 -227
454 26 994 522 1114 71 18 132 19 839 20 629 1 774 -2 830 -13z"/>
<path d="M7794 2001 c-17 -10 -58 -61 -94 -117 -34 -55 -77 -121 -95 -149 -17
-27 -68 -107 -113 -177 -45 -71 -119 -185 -164 -255 -44 -71 -94 -147 -109
-170 -59 -89 -63 -83 54 -83 l104 0 77 123 c42 67 100 159 129 204 28 46 101
161 162 258 60 96 114 175 120 175 5 -1 41 -51 79 -113 38 -62 95 -153 128
-204 32 -50 58 -96 58 -102 0 -7 -80 -12 -245 -13 l-245 -3 52 -77 51 -78 253
0 253 0 52 -85 52 -85 105 0 104 0 -18 28 c-10 15 -68 106 -129 202 -404 633
-446 696 -476 718 -40 27 -102 29 -145 3z"/>
<path d="M4679 1986 c-236 -82 -374 -333 -313 -570 22 -86 68 -167 128 -226
60 -59 97 -83 175 -113 54 -21 68 -22 451 -22 395 0 395 0 455 24 80 33 133
69 189 132 233 259 121 665 -213 777 -62 21 -82 22 -435 21 -360 0 -373 -1
-437 -23z m860 -171 c58 -32 119 -95 147 -153 27 -53 27 -212 0 -264 -30 -62
-93 -125 -154 -155 l-57 -28 -341 -3 c-391 -3 -409 0 -502 83 -186 167 -114
470 128 546 14 4 183 7 375 6 l350 -2 54 -30z"/>
<path d="M6000 1530 l0 -480 90 0 90 0 0 400 0 401 344 -3 c332 -3 346 -4 373
-24 37 -28 73 -91 73 -132 0 -49 -35 -114 -78 -142 l-37 -25 -285 3 c-255 3
-283 2 -270 -12 8 -8 132 -116 275 -240 l260 -225 128 -1 128 0 -98 83 c-54
45 -135 113 -180 151 -46 38 -80 73 -77 77 3 5 38 9 78 9 106 0 159 21 233 95
50 50 65 73 78 119 51 176 -29 344 -195 407 -47 18 -80 19 -490 19 l-440 0 0
-480z"/>
<path d="M8833 1995 c-125 -40 -243 -138 -295 -246 -35 -73 -39 -84 -48 -157
-27 -209 77 -401 269 -495 l86 -42 351 -3 351 -3 47 72 c25 40 46 76 46 80 0
5 -168 9 -372 11 l-373 3 -57 28 c-236 116 -236 458 0 574 l57 28 317 3 318 3
43 67 c24 37 46 73 51 80 11 18 -731 16 -791 -3z"/>
<path d="M9750 1564 c0 -456 1 -472 39 -501 12 -9 127 -12 462 -13 l446 0 51
78 52 77 -435 3 -435 2 0 400 0 400 -90 0 -90 0 0 -446z"/>
<path d="M11104 1987 c-88 -32 -146 -70 -202 -132 -63 -71 -98 -141 -118 -235
-45 -215 64 -425 275 -528 l76 -37 351 -3 350 -3 51 78 51 78 -376 5 c-356 5
-379 6 -423 26 -80 37 -151 115 -174 192 l-6 22 404 0 404 0 51 78 52 77 -456
3 -455 2 7 23 c22 73 88 148 162 184 l57 28 317 3 317 3 20 27 c10 15 33 51
50 80 l30 52 -377 -1 c-361 -1 -380 -2 -438 -22z"/>
</g>
</svg>
