<?xml version="1.0" standalone="no"?>
<!DOCTYPE svg PUBLIC "-//W3C//DTD SVG 20010904//EN"
 "http://www.w3.org/TR/2001/REC-SVG-20010904/DTD/svg10.dtd">
<svg version="1.0" xmlns="http://www.w3.org/2000/svg"
 width="915.297064pt" height="139.787088pt" viewBox="0 0 915.297064 139.787088"
 preserveAspectRatio="xMidYMid meet">
<metadata>
Created by potrace 1.12, written by Peter Selinger 2001-2015
</metadata>
<g transform="translate(-64.000000,209.048088) scale(0.100000,-0.100000)"
fill="#000000" stroke="none">
<path d="M935 2071 c-171 -43 -253 -126 -279 -285 -16 -93 2 -193 46 -260 37
-56 139 -128 354 -251 137 -78 204 -148 204 -210 0 -33 -20 -87 -42 -111 -39
-44 -149 -40 -198 6 -29 27 -30 32 -30 113 0 68 -3 86 -16 91 -20 8 -181 8
-266 -1 l-68 -6 0 -76 c0 -83 19 -161 50 -203 11 -15 20 -31 20 -35 0 -15 72
-71 124 -96 153 -74 418 -72 566 3 62 32 125 102 151 168 18 47 22 78 23 172
0 106 -2 119 -28 170 -15 30 -42 70 -59 88 -40 42 -165 125 -282 187 -200 106
-249 162 -224 253 16 58 51 82 122 82 48 0 58 -4 85 -32 30 -29 35 -45 44
-138 l3 -25 155 0 155 0 3 58 c5 105 -32 206 -98 264 -94 84 -337 118 -515 74z"/>
<path d="M5305 2083 c-138 -16 -252 -59 -304 -115 -16 -18 -42 -57 -57 -87
-25 -50 -28 -67 -29 -156 0 -65 5 -112 14 -135 16 -39 55 -95 86 -124 23 -22
211 -146 221 -146 4 0 46 -23 93 -51 149 -89 190 -144 176 -237 -5 -32 -15
-54 -37 -74 -26 -24 -38 -28 -89 -28 -53 0 -63 3 -95 33 -35 32 -36 35 -41
120 l-6 87 -168 0 -169 0 0 -73 c0 -212 113 -345 325 -383 149 -27 308 -12
420 41 54 26 115 75 115 94 0 6 3 11 8 11 4 0 18 24 32 52 23 48 25 65 25 183
0 126 -1 132 -29 180 -51 87 -133 153 -310 249 -93 51 -198 119 -217 142 -72
83 -23 204 82 204 90 0 121 -31 129 -130 l5 -65 155 0 155 0 3 60 c6 119 -32
212 -111 266 -69 47 -95 56 -202 74 -88 14 -119 16 -180 8z"/>
<path d="M9198 2074 c-187 -34 -289 -126 -319 -291 -7 -35 -9 -197 -7 -427 l3
-371 28 -53 c15 -29 47 -72 71 -96 103 -101 345 -146 525 -96 136 38 207 90
257 187 l29 58 3 248 4 247 -224 -2 -223 -3 -3 -92 -3 -92 63 -3 63 -3 3 -120
c3 -138 -5 -165 -56 -196 -30 -17 -48 -20 -96 -17 -53 4 -62 8 -93 42 l-34 37
3 379 3 380 32 31 c29 29 38 32 92 32 106 0 141 -37 141 -147 l0 -66 166 0
167 0 -6 83 c-8 109 -38 188 -92 243 -61 60 -124 88 -240 108 -118 19 -154 19
-257 0z"/>
<path d="M2044 2042 c-5 -4 -18 -59 -28 -122 -10 -63 -22 -133 -27 -155 -5
-22 -20 -103 -34 -180 -14 -77 -30 -162 -35 -190 -15 -79 -47 -261 -65 -365
-9 -52 -20 -111 -25 -130 -22 -92 -30 -144 -22 -152 5 -5 82 -7 173 -6 l164 3
7 45 c22 138 29 185 43 280 9 58 20 134 25 170 5 36 14 94 20 130 6 36 15 98
20 138 5 40 14 98 19 130 5 31 15 93 21 137 19 138 21 144 30 150 14 8 14 7
44 -220 15 -110 31 -225 36 -255 5 -30 14 -89 19 -130 6 -41 17 -118 25 -170
8 -52 19 -135 26 -185 7 -49 16 -106 21 -125 5 -19 9 -47 9 -62 l0 -28 170 0
c191 0 177 -7 160 80 -56 300 -83 444 -90 490 -5 30 -21 118 -35 195 -14 77
-30 163 -35 190 -34 196 -60 326 -65 335 -7 12 -554 14 -571 2z"/>
<path d="M3158 2038 c-4 -31 -29 -1280 -25 -1284 1 -1 73 -4 160 -6 l157 -3 1
550 c0 303 4 570 8 595 l7 45 13 -65 c14 -73 27 -139 42 -220 5 -30 14 -75 19
-100 5 -25 12 -63 16 -85 3 -22 14 -85 24 -140 11 -55 31 -163 45 -240 14 -77
29 -162 35 -190 5 -27 12 -66 15 -85 3 -19 9 -41 13 -47 11 -17 198 -28 272
-16 l54 8 19 100 c17 95 27 151 48 255 4 25 16 86 25 135 9 50 24 133 34 185
10 52 26 136 35 185 38 214 56 298 67 309 4 6 8 -254 8 -576 0 -370 4 -589 10
-593 5 -3 76 -6 157 -7 l148 0 2 98 c2 55 -3 347 -10 649 l-12 550 -257 3
c-298 3 -269 15 -287 -118 -12 -79 -17 -112 -41 -245 -5 -27 -21 -126 -35
-220 -14 -93 -30 -186 -36 -206 -5 -20 -9 -47 -9 -59 0 -43 -22 -150 -30 -145
-8 5 -17 52 -55 290 -14 88 -32 201 -41 250 -8 50 -19 119 -25 155 -14 94 -27
171 -40 240 l-12 60 -258 0 c-200 0 -259 -3 -261 -12z"/>
<path d="M6144 2037 c-3 -8 -4 -248 -2 -533 l3 -519 24 -55 c45 -103 94 -149
206 -193 42 -17 76 -20 215 -21 176 -1 213 5 300 52 69 37 115 94 139 171 20
64 21 85 21 589 l0 522 -160 0 -160 0 0 -508 c0 -473 -1 -510 -18 -542 -43
-82 -152 -92 -217 -20 -19 21 -20 40 -25 544 l-5 521 -158 3 c-127 2 -158 0
-163 -11z"/>
<path d="M7430 1405 l0 -645 155 0 156 0 -6 338 c-3 185 -8 426 -10 535 -4
124 -2 196 4 193 10 -7 47 -122 152 -481 22 -75 83 -274 104 -340 7 -22 23
-74 35 -115 12 -41 26 -87 32 -102 l10 -28 229 0 229 0 -2 643 -3 642 -154 3
-153 3 2 -498 c3 -530 3 -529 -5 -521 -4 4 -46 142 -75 248 -5 19 -21 73 -35
120 -14 47 -30 103 -36 125 -6 22 -15 51 -20 65 -7 22 -88 299 -121 418 l-12
42 -238 0 -238 0 0 -645z"/>
</g>
</svg>
