<?xml version="1.0" standalone="no"?>
<!DOCTYPE svg PUBLIC "-//W3C//DTD SVG 20010904//EN"
 "http://www.w3.org/TR/2001/REC-SVG-20010904/DTD/svg10.dtd">
<svg version="1.0" xmlns="http://www.w3.org/2000/svg"
 width="400.536488pt" height="120.695769pt" viewBox="0 0 400.536488 120.695769"
 preserveAspectRatio="xMidYMid meet">
<metadata>
Created by potrace 1.12, written by Peter Selinger 2001-2015
</metadata>
<g transform="translate(-3.000000,121.873366) scale(0.100000,-0.100000)"
fill="#000000" stroke="none">
<path d="M495 1204 c-178 -43 -343 -182 -415 -349 -24 -56 -50 -180 -50 -240
0 -150 67 -312 175 -421 130 -131 285 -192 465 -181 164 10 277 62 395 181
123 123 175 249 175 421 0 101 -18 181 -63 274 -41 85 -166 213 -254 259 -127
67 -293 88 -428 56z m250 -319 c134 -22 291 -79 324 -119 20 -23 10 -69 -18
-83 -20 -9 -31 -9 -60 4 -174 77 -258 95 -436 96 -90 0 -155 -5 -213 -18 -79
-17 -83 -17 -102 0 -27 25 -26 71 3 89 62 41 337 58 502 31z m33 -224 c95 -28
209 -85 216 -109 4 -11 4 -26 0 -35 -11 -31 -44 -30 -113 2 -114 52 -210 73
-346 73 -76 0 -140 -6 -175 -16 -48 -13 -58 -13 -77 0 -25 16 -31 55 -10 72
54 45 368 53 505 13z m-60 -186 c37 -9 97 -30 132 -48 58 -29 65 -35 65 -62 0
-42 -24 -43 -106 -5 -127 58 -275 71 -443 38 -54 -10 -60 -9 -72 7 -16 22 -17
25 -5 44 24 38 302 55 429 26z"/>
<path d="M3141 914 c-12 -15 -21 -32 -21 -39 0 -27 41 -65 70 -65 29 0 70 38
70 65 0 27 -41 65 -70 65 -19 0 -36 -9 -49 -26z"/>
<path d="M3421 907 c-43 -15 -71 -52 -78 -105 -5 -36 -9 -42 -29 -42 -22 0
-24 -4 -24 -50 0 -47 2 -50 25 -50 l25 0 0 -166 0 -165 53 3 52 3 3 163 2 162
43 0 43 0 67 -162 c65 -155 67 -162 50 -181 -14 -15 -26 -18 -59 -13 -39 5
-41 4 -53 -30 -17 -48 -6 -57 74 -62 66 -4 66 -4 103 35 35 38 61 97 208 486
5 15 -1 17 -49 17 l-55 0 -50 -142 c-39 -110 -52 -138 -58 -123 -4 11 -29 74
-55 140 l-46 120 -79 3 c-43 2 -82 6 -87 11 -4 4 -3 20 3 35 9 26 14 28 55 24
l45 -3 0 46 c0 46 0 46 -37 53 -48 7 -51 7 -92 -7z"/>
<path d="M1569 885 c-82 -26 -131 -106 -115 -187 14 -69 58 -102 176 -133 96
-25 120 -40 120 -75 0 -79 -119 -91 -222 -22 l-40 26 -29 -34 c-16 -19 -29
-38 -29 -42 0 -12 71 -56 119 -73 66 -23 167 -20 221 7 65 34 85 67 85 143 0
54 -4 67 -25 90 -33 35 -68 53 -154 77 -93 25 -116 41 -116 78 0 70 112 80
202 18 l27 -19 27 41 c32 47 26 58 -44 88 -66 28 -146 35 -203 17z"/>
<path d="M2880 816 c0 -52 -1 -55 -27 -58 -26 -3 -28 -6 -28 -48 0 -42 2 -45
28 -48 l27 -3 0 -135 0 -136 29 -29 c26 -25 37 -29 86 -29 79 0 95 11 95 65
l0 44 -31 -11 c-22 -7 -37 -7 -55 1 -23 10 -24 14 -24 121 l0 110 55 0 55 0 0
50 0 50 -55 0 -55 0 0 55 0 55 -50 0 -50 0 0 -54z"/>
<path d="M1900 485 l0 -275 50 0 50 0 0 85 c0 47 2 85 5 85 2 0 21 -11 41 -25
54 -37 134 -35 196 4 62 39 88 95 88 186 0 131 -64 206 -184 213 -53 3 -66 0
-99 -22 -46 -32 -47 -32 -47 -1 0 23 -3 25 -50 25 l-50 0 0 -275z m271 168
c76 -45 72 -186 -7 -221 -40 -19 -80 -14 -113 14 -111 93 -3 280 120 207z"/>
<path d="M2500 744 c-152 -66 -178 -283 -44 -376 73 -52 190 -54 261 -5 59 39
87 91 91 167 5 75 -11 120 -56 166 -60 60 -174 82 -252 48z m162 -101 c24 -21
48 -73 48 -104 0 -35 -31 -89 -61 -104 -49 -26 -95 -19 -137 19 -34 32 -37 39
-37 89 0 45 5 60 25 82 14 15 34 31 45 36 30 13 94 3 117 -18z"/>
<path d="M3140 545 l0 -215 50 0 50 0 0 215 0 215 -50 0 -50 0 0 -215z"/>
<path d="M3990 693 c0 -27 3 -34 9 -24 7 11 13 12 23 3 11 -9 14 -5 13 21 0
25 -5 33 -22 35 -20 3 -23 -1 -23 -35z m32 12 c0 -5 -5 -11 -11 -13 -6 -2 -11
4 -11 13 0 9 5 15 11 13 6 -2 11 -8 11 -13z"/>
</g>
</svg>
