<?xml version="1.0" standalone="no"?>
<!DOCTYPE svg PUBLIC "-//W3C//DTD SVG 20010904//EN"
 "http://www.w3.org/TR/2001/REC-SVG-20010904/DTD/svg10.dtd">
<svg version="1.0" xmlns="http://www.w3.org/2000/svg"
 width="1159.710178pt" height="260.287739pt" viewBox="0 0 1159.710178 260.287739"
 preserveAspectRatio="xMidYMid meet">
<metadata>
Created by potrace 1.12, written by Peter Selinger 2001-2015
</metadata>
<g transform="translate(-18.302031,333.606235) scale(0.100000,-0.100000)"
fill="#000000" stroke="none">
<path d="M3760 3334 c-85 -10 -211 -37 -285 -61 -86 -28 -255 -104 -291 -131
-12 -9 -32 -24 -44 -32 -153 -101 -314 -275 -405 -439 -236 -424 -215 -941 56
-1355 61 -94 237 -274 327 -335 180 -122 365 -197 547 -221 44 -6 110 -15 148
-21 47 -8 87 -8 135 0 37 6 105 16 151 22 46 6 93 14 105 19 11 5 59 21 106
36 261 82 504 273 668 522 23 35 42 65 42 67 0 3 18 41 40 87 22 45 46 100 52
122 6 23 15 46 19 51 5 6 17 63 28 127 23 129 28 333 11 434 -20 116 -33 179
-40 189 -4 6 -19 46 -34 90 -47 133 -156 307 -269 424 -242 253 -557 394 -907
405 -69 2 -141 2 -160 0z m347 -511 c132 -37 300 -144 386 -245 104 -125 159
-236 188 -381 36 -182 18 -333 -60 -501 -47 -102 -74 -140 -160 -226 -139
-138 -255 -198 -454 -235 -87 -16 -111 -17 -204 -6 -268 31 -471 153 -610 364
-83 126 -118 233 -131 392 -27 322 154 634 453 781 142 69 214 85 380 80 100
-2 160 -9 212 -23z"/>
<path d="M6576 3330 c-328 -41 -633 -202 -840 -442 -147 -172 -238 -355 -292
-593 -25 -105 -26 -393 -2 -505 20 -93 57 -218 74 -245 6 -11 15 -30 19 -43
10 -34 82 -157 132 -227 44 -61 171 -196 221 -234 207 -161 415 -255 622 -281
47 -6 113 -15 147 -21 113 -17 361 23 538 89 306 113 570 357 709 655 67 144
91 220 116 372 11 66 11 308 0 365 -33 172 -59 256 -115 375 -64 137 -137 239
-254 356 -189 189 -370 288 -648 354 -115 27 -315 39 -427 25z m379 -507 c228
-65 436 -249 529 -470 64 -154 79 -364 36 -518 -85 -305 -325 -534 -620 -591
-123 -24 -180 -26 -294 -9 -129 19 -194 42 -298 103 -167 98 -298 260 -358
441 -42 127 -56 244 -41 333 29 178 45 224 117 348 103 176 296 319 501 370
105 26 324 22 428 -7z"/>
<path d="M9195 3331 c-186 -29 -367 -106 -501 -214 -201 -162 -335 -405 -364
-660 -11 -92 -14 -1677 -3 -1677 43 0 152 29 203 54 81 39 176 131 212 206 62
130 61 119 63 775 3 697 1 682 99 828 115 173 344 250 552 186 91 -28 141 -58
201 -122 65 -69 95 -117 124 -202 l24 -70 5 -635 5 -635 26 -66 c68 -176 213
-289 401 -314 l47 -7 3 829 3 828 23 65 c45 122 108 207 203 270 147 97 355
108 506 26 110 -60 195 -160 241 -286 l24 -65 2 -605 c2 -333 6 -623 10 -645
21 -111 69 -201 146 -275 73 -70 144 -108 237 -126 41 -8 79 -14 84 -14 13 0
12 1563 -2 1670 -17 141 -33 195 -98 330 -44 92 -68 129 -137 210 -64 75 -116
122 -199 177 -385 257 -886 216 -1223 -102 -29 -27 -58 -52 -63 -53 -5 -2 -46
30 -90 72 -117 110 -249 179 -431 224 -95 24 -255 35 -333 23z"/>
<path d="M188 3250 c2 -25 8 -49 13 -54 5 -6 9 -17 9 -26 0 -30 69 -155 108
-197 45 -46 122 -98 192 -128 42 -19 78 -20 623 -23 517 -2 579 -4 584 -19 4
-11 -97 -117 -363 -380 -203 -200 -534 -529 -736 -730 -424 -424 -430 -431
-431 -568 0 -61 5 -92 22 -130 28 -63 83 -129 132 -161 86 -54 93 -54 1215
-54 l1034 0 0 36 c0 55 -28 142 -66 206 -60 98 -135 157 -289 224 -11 5 -314
11 -674 14 -473 4 -655 8 -658 16 -2 6 63 78 144 158 81 81 413 411 736 734
670 668 642 635 642 787 -1 78 -5 98 -29 147 -35 71 -93 129 -165 164 l-56 27
-996 1 -996 1 5 -45z"/>
</g>
</svg>
